<?xml version="1.0" encoding="UTF-8" standalone="no"?>
<!-- Created with Inkscape (http://www.inkscape.org/) -->

<svg
   width="210mm"
   height="104.974mm"
   viewBox="0 0 210 104.974"
   version="1.1"
   id="svg939"
   inkscape:version="1.1.2 (0a00cf5339, 2022-02-04)"
   sodipodi:docname="wordleLogo.svg"
   inkscape:label="Letters"
   xmlns:inkscape="http://www.inkscape.org/namespaces/inkscape"
   xmlns:sodipodi="http://sodipodi.sourceforge.net/DTD/sodipodi-0.dtd"
   xmlns="http://www.w3.org/2000/svg"
   xmlns:svg="http://www.w3.org/2000/svg">
  <sodipodi:namedview
     id="namedview941"
     pagecolor="#505050"
     bordercolor="#ffffff"
     borderopacity="1"
     inkscape:pageshadow="0"
     inkscape:pageopacity="0"
     inkscape:pagecheckerboard="1"
     inkscape:document-units="mm"
     showgrid="false"
     inkscape:zoom="1"
     inkscape:cx="313"
     inkscape:cy="249"
     inkscape:window-width="1920"
     inkscape:window-height="1014"
     inkscape:window-x="0"
     inkscape:window-y="36"
     inkscape:window-maximized="1"
     inkscape:current-layer="svg939"
     showborder="true"
     units="mm"
     width="209mm"
     inkscape:lockguides="false"
     showguides="false"
     inkscape:guide-bbox="true"
     inkscape:snap-text-baseline="false">
    <sodipodi:guide
       position="55.799193,79.483166"
       orientation="0.70710678,-0.70710678"
       id="guide165143"
       inkscape:locked="false" />
    <sodipodi:guide
       position="68.240589,47.958727"
       orientation="-0.70710678,-0.70710678"
       id="guide165145"
       inkscape:locked="false" />
  </sodipodi:namedview>
  <defs
     id="defs936">
    <rect
       x="194.89302"
       y="242.1976"
       width="404.44017"
       height="108.26663"
       id="rect118880" />
    <rect
       x="195.47466"
       y="236.40402"
       width="395.71883"
       height="94.511566"
       id="rect107500" />
    <inkscape:path-effect
       effect="bounding_box"
       id="path-effect86662"
       is_visible="true"
       lpeversion="1"
       linkedpath=""
       visualbounds="false" />
    <rect
       x="201.33365"
       y="245.13857"
       width="389.7274"
       height="93.33399"
       id="rect76159" />
    <rect
       x="200.32028"
       y="240.13202"
       width="396.77892"
       height="123.20529"
       id="rect10284" />
    <rect
       x="40.079765"
       y="117.12014"
       width="109.07445"
       height="109.34474"
       id="rect49876" />
  </defs>
  <g
     id="g28"
     inkscape:label="Squares"
     style="display:inline"
     sodipodi:insensitive="true">
    <rect
       style="fill:#6baa64;fill-opacity:1;stroke-width:0.264583"
       id="Square_E"
       width="28.839582"
       height="28.839582"
       x="170.591"
       y="31.009001"
       inkscape:label="Square E" />
    <rect
       style="fill:#6baa64;fill-opacity:1;stroke-width:0.264583"
       id="rect1973-3-6-7-5"
       width="28.839582"
       height="28.839582"
       x="138.60001"
       y="31.009001"
       inkscape:label="Square L" />
    <rect
       style="fill:#6baa64;fill-opacity:1;stroke-width:0.264583"
       id="rect1973-3-6-7"
       width="28.839582"
       height="28.839582"
       x="106.609"
       y="31.009001"
       inkscape:label="Square D" />
    <rect
       style="fill:#6baa64;fill-opacity:1;stroke-width:0.264583"
       id="Square_R"
       width="28.839582"
       height="28.839582"
       x="74.617996"
       y="31.009001"
       inkscape:label="Square R" />
    <rect
       style="fill:#6baa64;fill-opacity:1;stroke-width:0.264583"
       id="rect1973-3"
       width="28.839582"
       height="28.839582"
       x="42.626999"
       y="31.009001"
       inkscape:label="Square O" />
    <rect
       style="fill:#6baa64;fill-opacity:1;stroke-width:0.264583"
       id="rect1973"
       width="28.839582"
       height="28.839582"
       x="10.635822"
       y="31.008995"
       inkscape:label="Square W" />
  </g>
  <g
     id="g27"
     inkscape:label="Letters"
     style="display:inline"
     sodipodi:insensitive="true">
    <path
       style="opacity:1;fill:#ffffff;stroke-width:0.0330729"
       d="m 179.06015,45.297468 v -8.218619 l 0.2067,-0.0011 c 0.20777,-0.0011 11.83963,-5.29e-4 12.07162,5.29e-4 l 0.12402,5.3e-4 v 1.500682 1.500685 l -0.10335,0.02066 c -0.0568,0.01138 -2.03626,0.02066 -4.3987,0.02066 h -4.29535 v 1.835546 1.835547 h 4.01598 4.01598 l 0.022,0.176255 c 0.0121,0.09694 0.0169,0.670481 0.0107,1.274532 -0.01,0.931725 -0.0189,1.103027 -0.061,1.129618 -0.0305,0.01929 -1.58568,0.03153 -4.04316,0.03185 l -3.99355,5.29e-4 v 2.083594 2.083591 h 4.48138 4.48138 v 1.471744 1.471745 h -6.26732 -6.26732 z"
       id="path177"
       inkscape:label="Letter E" />
    <path
       style="display:inline;fill:#ffffff;stroke-width:0.176777"
       d="m 557.90724,171.2279 v -30.82785 l 3.93328,-0.12064 c 2.1633,-0.0664 5.12652,-0.0951 6.58493,-0.0639 l 2.65165,0.0568 0.0448,25.32326 0.0448,25.32327 h 15.29058 15.29058 v 5.56846 5.56847 h -21.9203 -21.92031 z"
       id="path208"
       transform="scale(0.26458333)"
       inkscape:label="Letter L" />
    <path
       id="path368"
       style="display:inline;opacity:1;fill:#ffffff;stroke-width:0.125"
       d="m 454.34961,140.18945 c -2.83793,0.004 -6.66684,0.0155 -11.88086,0.0293 L 430.6875,140.25 v 31.0625 31.06055 l 11.03125,0.0332 c 6.06719,0.018 13.70313,0.0453 16.96875,0.0606 5.47481,0.0257 6.02327,0.008 7.0332,-0.21485 3.37145,-0.74548 7.0176,-2.54167 9.9668,-4.91211 4.55497,-3.66108 7.84419,-9.04325 9.5625,-15.64453 1.93613,-7.43805 2.04938,-15.82274 0.29688,-22.00781 -0.91358,-3.2243 -2.5065,-6.43338 -4.4668,-9 -0.85699,-1.12206 -2.94067,-3.22733 -4.14258,-4.18555 -3.58723,-2.8599 -8.02822,-4.88136 -13.125,-5.97265 -1.35045,-0.28919 -0.94909,-0.3505 -9.46289,-0.33985 z m -9.17773,12.25391 11.65234,0.14844 c 0,0 0.0616,0.006 0.17578,0.0195 0.0571,0.007 0.12819,0.0155 0.21094,0.0273 0.0828,0.0118 0.17675,0.0253 0.2832,0.043 0.10645,0.0177 0.22532,0.04 0.35352,0.0645 0.12819,0.0245 0.26605,0.0518 0.41406,0.084 0.148,0.0322 0.30483,0.0685 0.4707,0.10937 0.16587,0.0409 0.3397,0.0862 0.52149,0.13672 0.18178,0.0506 0.37259,0.10683 0.56836,0.16797 0.19576,0.0611 0.39767,0.12849 0.60546,0.20117 0.1039,0.0363 0.20987,0.0739 0.31641,0.11328 0.10654,0.0394 0.21332,0.0805 0.32227,0.12305 0.10894,0.0426 0.21898,0.0869 0.33007,0.13281 0.1111,0.0459 0.22293,0.0933 0.33594,0.14258 0.11302,0.0493 0.22711,0.0995 0.3418,0.15235 0.11468,0.0528 0.22959,0.10756 0.3457,0.16406 0.11612,0.0565 0.23427,0.1155 0.35156,0.17578 0.1173,0.0603 0.23528,0.12138 0.35352,0.18555 0.11824,0.0642 0.23653,0.13103 0.35547,0.19921 0.11894,0.0682 0.23802,0.13863 0.35742,0.21094 0.1194,0.0723 0.23781,0.1461 0.35742,0.22266 0.11961,0.0766 0.2398,0.1554 0.35938,0.23633 0.11958,0.0809 0.24006,0.16458 0.35937,0.25 0.11931,0.0854 0.23863,0.17365 0.35742,0.26367 0.1188,0.09 0.23744,0.1826 0.35547,0.27734 0.11804,0.0948 0.23453,0.19143 0.35157,0.29102 0.11703,0.0996 0.23382,0.20209 0.3496,0.30664 0.11579,0.10455 0.23141,0.21068 0.34571,0.32031 0.1143,0.10963 0.22727,0.22111 0.33984,0.33594 0.11257,0.11483 0.22339,0.23337 0.33399,0.35351 0.11059,0.12015 0.22169,0.24356 0.33007,0.36914 0.10839,0.12559 0.2144,0.25363 0.32032,0.38477 0.10592,0.13114 0.21123,0.26358 0.31445,0.40039 0.10322,0.13681 0.20441,0.27732 0.30469,0.41992 0.10027,0.14261 0.19979,0.28899 0.29687,0.4375 0.0971,0.14852 0.1915,0.29858 0.28516,0.45313 0.0936,0.15454 0.18541,0.31196 0.27539,0.47265 0.09,0.1607 0.17956,0.32523 0.26562,0.49219 0.0861,0.16696 0.17006,0.33642 0.25196,0.50977 0.0819,0.17334 0.16078,0.3514 0.23828,0.53125 0.0775,0.17985 0.15371,0.36235 0.22656,0.54883 0.0729,0.18647 0.14298,0.37709 0.21094,0.57031 0.068,0.19321 0.13248,0.38977 0.19531,0.58984 0.0628,0.20008 0.12419,0.40232 0.18164,0.60938 0.0575,0.20705 0.11223,0.41866 0.16406,0.63281 0.0518,0.21415 0.10051,0.43098 0.14649,0.65234 0.046,0.22137 0.089,0.44708 0.12891,0.67578 0.0399,0.2287 0.0759,0.46111 0.10937,0.69727 0.0335,0.23615 0.0649,0.47502 0.0918,0.71875 0.0269,0.24373 0.0502,0.49272 0.0703,0.74414 0.0201,0.25142 0.0358,0.5064 0.0488,0.76562 0.013,0.25923 0.0236,0.52191 0.0293,0.78907 0.006,0.26715 0.008,0.5373 0.006,0.8125 -0.002,0.2752 -0.008,0.55452 -0.0176,0.83789 -0.01,0.28336 -0.0234,0.56321 -0.0391,0.83789 -0.0156,0.27468 -0.0333,0.54441 -0.0547,0.81055 -0.0214,0.26613 -0.0453,0.52938 -0.0723,0.7871 -0.027,0.25773 -0.0575,0.51033 -0.0898,0.75977 -0.0323,0.24944 -0.0679,0.49503 -0.10547,0.73633 -0.0375,0.2413 -0.0766,0.47764 -0.11914,0.71094 -0.0425,0.23329 -0.0875,0.46403 -0.13477,0.68945 -0.0473,0.22542 -0.0965,0.44638 -0.14844,0.66406 -0.0519,0.21768 -0.10579,0.4325 -0.16211,0.64258 -0.0563,0.21008 -0.11524,0.41458 -0.17578,0.61719 -0.0605,0.20261 -0.12294,0.40237 -0.1875,0.59765 -0.0645,0.19528 -0.13084,0.38614 -0.19922,0.57422 -0.0684,0.18808 -0.13892,0.37367 -0.21093,0.55469 -0.072,0.18102 -0.14721,0.35911 -0.22266,0.5332 -0.0754,0.1741 -0.15178,0.34442 -0.23047,0.51172 -0.0787,0.1673 -0.15849,0.33155 -0.24023,0.49219 -0.0817,0.16064 -0.1654,0.31658 -0.25,0.4707 -0.0846,0.15412 -0.17055,0.30539 -0.25781,0.45313 -0.0873,0.14773 -0.1759,0.29211 -0.26563,0.43359 -0.0897,0.14149 -0.18144,0.28065 -0.27344,0.41602 -0.092,0.13536 -0.18326,0.26709 -0.27734,0.39648 -0.0941,0.12939 -0.18919,0.25537 -0.28516,0.37891 -0.096,0.12354 -0.19335,0.24545 -0.29101,0.36328 -0.0977,0.11783 -0.19577,0.2315 -0.29492,0.34375 -0.0992,0.11225 -0.20032,0.22326 -0.30079,0.33008 -0.10046,0.10681 -0.20116,0.21099 -0.30273,0.3125 -0.10157,0.1015 -0.20415,0.20054 -0.30664,0.29687 -0.10249,0.0963 -0.20539,0.18995 -0.3086,0.28125 -0.1032,0.0913 -0.2068,0.17923 -0.31054,0.26563 -0.10374,0.0864 -0.20648,0.17032 -0.31055,0.25195 -0.10407,0.0816 -0.20829,0.16128 -0.3125,0.23828 -0.10421,0.077 -0.20834,0.1521 -0.3125,0.22461 -0.10416,0.0725 -0.20859,0.14279 -0.3125,0.21094 -0.10391,0.0682 -0.20708,0.13334 -0.31055,0.19726 -0.10346,0.0639 -0.20771,0.12572 -0.31054,0.18555 -0.10283,0.0598 -0.20464,0.11795 -0.30664,0.17383 -0.10201,0.0559 -0.20371,0.11005 -0.30469,0.16211 -0.10098,0.0521 -0.20102,0.10201 -0.30078,0.15039 -0.0998,0.0484 -0.19853,0.0958 -0.29688,0.14062 -0.0983,0.0448 -0.19622,0.0875 -0.29297,0.12891 -0.0967,0.0414 -0.19412,0.081 -0.28906,0.11914 -0.0949,0.0381 -0.1883,0.0744 -0.28125,0.10938 -0.0929,0.035 -0.18463,0.0676 -0.27539,0.0996 -0.0908,0.032 -0.18115,0.0627 -0.26953,0.0918 -0.17676,0.0582 -0.34761,0.11068 -0.51367,0.15821 -0.16607,0.0475 -0.32665,0.091 -0.48047,0.1289 -0.15382,0.0379 -0.30138,0.0702 -0.44141,0.0996 -0.14002,0.0294 -0.2718,0.0562 -0.39648,0.0781 -0.12468,0.022 -0.24183,0.0391 -0.34961,0.0547 -0.10778,0.0156 -0.20755,0.0288 -0.29688,0.0391 -0.0893,0.0103 -0.16895,0.0193 -0.23828,0.0254 -0.0693,0.006 -0.12801,0.0107 -0.17578,0.0137 -0.0955,0.006 -0.14648,0.006 -0.14648,0.006 l -13.00781,-0.10547 z"
       transform="scale(0.26458333)"
       inkscape:label="Letter D" />
    <path
       id="path166968"
       style="fill:#ffffff;fill-opacity:1;stroke:none;stroke-width:0.176777"
       d="m 310.95117,140.00781 v 31.11133 l -0.002,31.11328 h 6.80664 6.80664 v -11.66797 -11.66601 h 8.93555 c 7.89754,0 9.00194,0.0333 9.50195,0.28711 3.00031,1.52299 5.16546,5.98304 6.12695,12.61718 0.39314,2.71262 0.71189,6.64149 0.71289,8.79493 l 0.002,1.45898 h 6.86328 6.86523 l -0.0547,-0.92969 c -0.68034,-11.66573 -2.31987,-19.16712 -5.17968,-23.69531 -0.85489,-1.35361 -2.56573,-3.00774 -3.43555,-3.32226 -0.52129,-0.18851 -0.60547,-0.29859 -0.60547,-0.79883 0,-0.52153 0.11937,-0.65835 1.17578,-1.3418 0.64656,-0.4183 1.77995,-1.35673 2.51758,-2.08594 3.98775,-3.94219 5.21504,-8.23079 4.31641,-15.08593 -0.91748,-6.9989 -4.23613,-11.88925 -9.38672,-13.83204 -2.57604,-0.97168 -2.25828,-0.95703 -22.89063,-0.95703 z m 28.81836,11.56641 c 0.0605,-0.001 0.15087,-3.6e-4 0.26367,0.002 0.0564,0.001 0.11759,0.003 0.18555,0.006 0.068,0.003 0.14221,0.006 0.2207,0.0117 0.0785,0.005 0.16199,0.0113 0.25,0.0195 0.088,0.008 0.18083,0.0175 0.27735,0.0293 0.0965,0.0118 0.19678,0.0271 0.30078,0.043 0.10399,0.0159 0.21181,0.0341 0.32226,0.0547 0.11046,0.0206 0.22394,0.0424 0.33985,0.0684 0.1159,0.0259 0.23318,0.056 0.35351,0.0879 0.0602,0.0159 0.12056,0.0313 0.18164,0.0488 0.0611,0.0175 0.12368,0.0355 0.18555,0.0547 0.0619,0.0192 0.12301,0.0396 0.18555,0.0606 0.0625,0.0209 0.12638,0.0437 0.18945,0.0664 0.0631,0.0227 0.12598,0.0457 0.18945,0.0703 0.0635,0.0246 0.12766,0.0496 0.19141,0.0762 0.0638,0.0266 0.1275,0.0554 0.19141,0.084 0.0639,0.0286 0.12747,0.0572 0.1914,0.0879 0.0639,0.0307 0.12758,0.0628 0.19141,0.0957 0.0638,0.0329 0.1278,0.0664 0.19141,0.10156 0.0636,0.0351 0.1262,0.0719 0.18945,0.10937 0.0632,0.0375 0.12669,0.0754 0.18945,0.11524 0.0628,0.0398 0.12535,0.0807 0.1875,0.12304 0.0622,0.0423 0.12414,0.086 0.18555,0.13086 0.0614,0.0449 0.12305,0.0912 0.18359,0.13868 0.0606,0.0475 0.12014,0.0963 0.17969,0.14648 0.0596,0.0502 0.1193,0.10135 0.17773,0.1543 0.0584,0.0529 0.11469,0.10827 0.17188,0.16406 0.0572,0.0558 0.11411,0.11316 0.16992,0.17187 0.0558,0.0587 0.11171,0.11799 0.16602,0.17969 0.0543,0.0617 0.10747,0.12469 0.16015,0.18945 0.0527,0.0648 0.10533,0.13132 0.15625,0.19922 0.0509,0.0679 0.0994,0.13787 0.14844,0.20899 0.049,0.0711 0.0975,0.14434 0.14453,0.21875 0.047,0.0744 0.0938,0.15075 0.13867,0.22851 0.0449,0.0778 0.0882,0.15709 0.13086,0.23829 0.0426,0.0812 0.0848,0.16334 0.125,0.24804 0.0402,0.0847 0.0775,0.17148 0.11524,0.25977 0.0377,0.0883 0.0743,0.17758 0.10937,0.26953 0.0351,0.0919 0.0693,0.18557 0.10156,0.28125 0.0323,0.0957 0.0644,0.19349 0.0937,0.29297 0.0294,0.0995 0.0557,0.20133 0.082,0.30468 0.0263,0.10336 0.051,0.2091 0.0742,0.31641 0.0232,0.10731 0.0465,0.21679 0.0664,0.32813 0.0199,0.11133 0.0382,0.22441 0.0547,0.33984 0.0165,0.11543 0.03,0.23196 0.043,0.35156 0.013,0.11961 0.0239,0.24138 0.0332,0.36524 0.009,0.12385 0.0179,0.25073 0.0234,0.3789 0.006,0.12818 0.008,0.25806 0.01,0.39063 0.002,0.13257 0.002,0.26726 0,0.40429 -0.002,0.13704 -0.008,0.27174 -0.0156,0.4043 -0.007,0.13257 -0.0172,0.26246 -0.0293,0.39063 -0.0121,0.12816 -0.0262,0.25506 -0.043,0.3789 -0.0167,0.12385 -0.0355,0.24564 -0.0566,0.36524 -0.0211,0.11959 -0.0449,0.23614 -0.0703,0.35156 -0.0254,0.11542 -0.0525,0.22853 -0.082,0.33984 -0.0296,0.11132 -0.0622,0.22084 -0.0957,0.32813 -0.0335,0.10728 -0.0681,0.21307 -0.10546,0.3164 -0.0373,0.10334 -0.0762,0.20524 -0.11719,0.30469 -0.041,0.0994 -0.0844,0.19733 -0.12891,0.29297 -0.0445,0.0957 -0.0908,0.18934 -0.13867,0.28125 -0.0478,0.0919 -0.0974,0.18128 -0.14844,0.26953 -0.051,0.0883 -0.10418,0.1751 -0.1582,0.25977 -0.054,0.0847 -0.10912,0.16688 -0.16602,0.24805 -0.0569,0.0812 -0.11422,0.16055 -0.17382,0.23828 -0.0596,0.0777 -0.12144,0.15415 -0.1836,0.22851 -0.0622,0.0744 -0.1249,0.14768 -0.18945,0.21875 -0.0645,0.0711 -0.13048,0.13917 -0.19727,0.20703 -0.0668,0.0679 -0.13425,0.1345 -0.20312,0.19922 -0.0689,0.0647 -0.13819,0.1278 -0.20899,0.18945 -0.0708,0.0617 -0.14423,0.12298 -0.21679,0.18165 -0.0726,0.0587 -0.14458,0.11417 -0.21875,0.16992 -0.0742,0.0557 -0.14898,0.11116 -0.22461,0.16406 -0.0756,0.0529 -0.15355,0.10417 -0.23047,0.1543 -0.0769,0.0501 -0.15436,0.0991 -0.23242,0.14648 -0.0781,0.0474 -0.15533,0.0939 -0.23438,0.13867 -0.079,0.0448 -0.15841,0.0886 -0.23828,0.13086 -0.0799,0.0423 -0.16165,0.0833 -0.24219,0.12305 -0.0805,0.0398 -0.16113,0.0778 -0.24218,0.11523 -0.0811,0.0374 -0.16078,0.0743 -0.24219,0.10938 -0.0814,0.0351 -0.16449,0.0687 -0.2461,0.10156 -0.0816,0.0328 -0.16249,0.0631 -0.24414,0.0937 -0.0816,0.0306 -0.16261,0.0613 -0.24414,0.0898 -0.0815,0.0285 -0.16288,0.0555 -0.24414,0.082 -0.0813,0.0265 -0.16332,0.0516 -0.24414,0.0762 -0.0808,0.0245 -0.16195,0.0477 -0.24218,0.0703 -0.0802,0.0227 -0.1588,0.0456 -0.23829,0.0664 -0.0795,0.0208 -0.15969,0.0414 -0.23828,0.0605 -0.0786,0.0191 -0.15685,0.0372 -0.23437,0.0547 -0.0775,0.0175 -0.15416,0.033 -0.23047,0.0488 -0.15262,0.0317 -0.30241,0.0601 -0.44922,0.0859 -0.14681,0.0258 -0.28994,0.0498 -0.42969,0.0703 -0.13975,0.0205 -0.27677,0.0389 -0.4082,0.0547 -0.13143,0.0158 -0.25706,0.0293 -0.37891,0.041 -0.12185,0.0117 -0.23859,0.0211 -0.34961,0.0293 -0.11101,0.008 -0.21747,0.0143 -0.3164,0.0195 -0.0989,0.005 -0.19177,0.009 -0.27735,0.0117 -0.0856,0.003 -0.16339,0.005 -0.23437,0.006 -0.14196,0.002 -0.25408,0.001 -0.33008,0 -0.076,-0.001 -0.11523,-0.002 -0.11523,-0.002 l -12.23243,-0.27539 -0.33789,-16.21876 14.99414,-0.125 c 0,0 0.0313,-0.003 0.0918,-0.004 z"
       transform="scale(0.26458333)"
       inkscape:label="Letter R" />
    <path
       id="path165722"
       style="display:inline;opacity:1;fill:#ffffff;fill-opacity:1;stroke:#ffffff;stroke-width:0.911689"
       inkscape:label="Letter O"
       d="m 214.39062,138.0625 a 33.277454,31.603693 87.478899 0 0 -31.60742,33.12305 33.277454,31.603693 87.478899 0 0 31.60742,33.42578 33.277454,31.603693 87.478899 0 0 31.60743,-33.12305 33.277454,31.603693 87.478899 0 0 -31.60743,-33.42578 z m 0.29102,13.22266 a 20.388404,16.311775 89.42204 0 1 1.16406,0.0586 20.388404,16.311775 89.42204 0 1 1.15821,0.16211 20.388404,16.311775 89.42204 0 1 1.14453,0.26367 20.388404,16.311775 89.42204 0 1 1.1289,0.36719 20.388404,16.311775 89.42204 0 1 1.10547,0.46484 20.388404,16.311775 89.42204 0 1 1.07422,0.56446 20.388404,16.311775 89.42204 0 1 1.04297,0.65625 20.388404,16.311775 89.42204 0 1 1,0.74804 20.388404,16.311775 89.42204 0 1 0.95703,0.83594 20.388404,16.311775 89.42204 0 1 0.90625,0.91797 20.388404,16.311775 89.42204 0 1 0.85352,0.99609 20.388404,16.311775 89.42204 0 1 0.79297,1.07031 20.388404,16.311775 89.42204 0 1 0.73046,1.13868 20.388404,16.311775 89.42204 0 1 0.66407,1.19922 20.388404,16.311775 89.42204 0 1 0.59375,1.2539 20.388404,16.311775 89.42204 0 1 0.52148,1.30469 20.388404,16.311775 89.42204 0 1 0.44531,1.34766 20.388404,16.311775 89.42204 0 1 0.36719,1.38281 20.388404,16.311775 89.42204 0 1 0.28906,1.41211 20.388404,16.311775 89.42204 0 1 0.20703,1.43359 20.388404,16.311775 89.42204 0 1 0.125,1.44727 20.388404,16.311775 89.42204 0 1 0.041,1.45507 20.388404,16.311775 89.42204 0 1 -0.006,0.5 20.388404,16.311775 89.42204 0 1 -0.0137,0.5 20.388404,16.311775 89.42204 0 1 -0.0254,0.49805 20.388404,16.311775 89.42204 0 1 -0.0332,0.49805 20.388404,16.311775 89.42204 0 1 -0.0449,0.49805 20.388404,16.311775 89.42204 0 1 -0.0547,0.49609 20.388404,16.311775 89.42204 0 1 -0.0625,0.49219 20.388404,16.311775 89.42204 0 1 -0.0742,0.49218 20.388404,16.311775 89.42204 0 1 -0.082,0.49024 20.388404,16.311775 89.42204 0 1 -0.0937,0.48437 20.388404,16.311775 89.42204 0 1 -0.10157,0.48438 20.388404,16.311775 89.42204 0 1 -0.11132,0.48047 20.388404,16.311775 89.42204 0 1 -0.1211,0.47656 20.388404,16.311775 89.42204 0 1 -0.1289,0.4707 20.388404,16.311775 89.42204 0 1 -0.14063,0.46875 20.388404,16.311775 89.42204 0 1 -0.14844,0.46485 20.388404,16.311775 89.42204 0 1 -0.1582,0.45898 20.388404,16.311775 89.42204 0 1 -0.16602,0.45313 20.388404,16.311775 89.42204 0 1 -0.17578,0.44922 20.388404,16.311775 89.42204 0 1 -0.18359,0.44335 20.388404,16.311775 89.42204 0 1 -0.19336,0.4375 20.388404,16.311775 89.42204 0 1 -0.20117,0.42969 20.388404,16.311775 89.42204 0 1 -0.21094,0.42578 20.388404,16.311775 89.42204 0 1 -0.21875,0.41797 20.388404,16.311775 89.42204 0 1 -0.22656,0.41211 20.388404,16.311775 89.42204 0 1 -0.23438,0.40234 20.388404,16.311775 89.42204 0 1 -0.24218,0.39844 20.388404,16.311775 89.42204 0 1 -0.25,0.38867 20.388404,16.311775 89.42204 0 1 -0.25782,0.38086 20.388404,16.311775 89.42204 0 1 -0.26562,0.37305 20.388404,16.311775 89.42204 0 1 -0.27149,0.36524 20.388404,16.311775 89.42204 0 1 -0.27929,0.35742 20.388404,16.311775 89.42204 0 1 -0.28711,0.34765 20.388404,16.311775 89.42204 0 1 -0.29297,0.33789 20.388404,16.311775 89.42204 0 1 -0.30078,0.33008 20.388404,16.311775 89.42204 0 1 -0.30664,0.32031 20.388404,16.311775 89.42204 0 1 -0.3125,0.3125 20.388404,16.311775 89.42204 0 1 -0.31836,0.30079 20.388404,16.311775 89.42204 0 1 -0.32422,0.29101 20.388404,16.311775 89.42204 0 1 -0.33008,0.28125 20.388404,16.311775 89.42204 0 1 -0.33594,0.27149 20.388404,16.311775 89.42204 0 1 -0.33984,0.25976 20.388404,16.311775 89.42204 0 1 -0.3457,0.25 20.388404,16.311775 89.42204 0 1 -0.35157,0.24024 20.388404,16.311775 89.42204 0 1 -0.35547,0.22656 20.388404,16.311775 89.42204 0 1 -0.35937,0.21875 20.388404,16.311775 89.42204 0 1 -0.36523,0.20508 20.388404,16.311775 89.42204 0 1 -0.36719,0.19531 20.388404,16.311775 89.42204 0 1 -0.3711,0.18359 20.388404,16.311775 89.42204 0 1 -0.375,0.17383 20.388404,16.311775 89.42204 0 1 -0.3789,0.16016 20.388404,16.311775 89.42204 0 1 -0.38281,0.14843 20.388404,16.311775 89.42204 0 1 -0.38477,0.13672 20.388404,16.311775 89.42204 0 1 -0.38672,0.125 20.388404,16.311775 89.42204 0 1 -0.38867,0.11328 20.388404,16.311775 89.42204 0 1 -0.39258,0.10157 20.388404,16.311775 89.42204 0 1 -0.39258,0.0898 20.388404,16.311775 89.42204 0 1 -0.39648,0.0781 20.388404,16.311775 89.42204 0 1 -0.39649,0.0644 20.388404,16.311775 89.42204 0 1 -0.39648,0.0527 20.388404,16.311775 89.42204 0 1 -0.40039,0.041 20.388404,16.311775 89.42204 0 1 -0.39844,0.0273 20.388404,16.311775 89.42204 0 1 -0.40039,0.0176 20.388404,16.311775 89.42204 0 1 -0.40039,0.004 20.388404,16.311775 89.42204 0 1 -1.16406,-0.0586 20.388404,16.311775 89.42204 0 1 -1.1582,-0.16211 20.388404,16.311775 89.42204 0 1 -1.14454,-0.26562 20.388404,16.311775 89.42204 0 1 -1.1289,-0.36524 20.388404,16.311775 89.42204 0 1 -1.10547,-0.46679 20.388404,16.311775 89.42204 0 1 -1.07617,-0.5625 20.388404,16.311775 89.42204 0 1 -1.04102,-0.65821 20.388404,16.311775 89.42204 0 1 -1,-0.74804 20.388404,16.311775 89.42204 0 1 -0.95703,-0.83594 20.388404,16.311775 89.42204 0 1 -0.90625,-0.91797 20.388404,16.311775 89.42204 0 1 -0.85352,-0.99609 20.388404,16.311775 89.42204 0 1 -0.79296,-1.07032 20.388404,16.311775 89.42204 0 1 -0.73047,-1.13671 20.388404,16.311775 89.42204 0 1 -0.66407,-1.19922 20.388404,16.311775 89.42204 0 1 -0.59375,-1.25586 20.388404,16.311775 89.42204 0 1 -0.52148,-1.30469 20.388404,16.311775 89.42204 0 1 -0.44531,-1.3457 20.388404,16.311775 89.42204 0 1 -0.36914,-1.38282 20.388404,16.311775 89.42204 0 1 -0.28711,-1.4121 20.388404,16.311775 89.42204 0 1 -0.20703,-1.4336 20.388404,16.311775 89.42204 0 1 -0.125,-1.44726 20.388404,16.311775 89.42204 0 1 -0.041,-1.45508 20.388404,16.311775 89.42204 0 1 0.041,-1.45508 20.388404,16.311775 89.42204 0 1 0.125,-1.44531 20.388404,16.311775 89.42204 0 1 0.20703,-1.43164 20.388404,16.311775 89.42204 0 1 0.28711,-1.40821 20.388404,16.311775 89.42204 0 1 0.36914,-1.3789 20.388404,16.311775 89.42204 0 1 0.44531,-1.3418 20.388404,16.311775 89.42204 0 1 0.52148,-1.29883 20.388404,16.311775 89.42204 0 1 0.59375,-1.24804 20.388404,16.311775 89.42204 0 1 0.66407,-1.19141 20.388404,16.311775 89.42204 0 1 0.73047,-1.12891 20.388404,16.311775 89.42204 0 1 0.79296,-1.06054 20.388404,16.311775 89.42204 0 1 0.85352,-0.98829 20.388404,16.311775 89.42204 0 1 0.90625,-0.9082 20.388404,16.311775 89.42204 0 1 0.95703,-0.82422 20.388404,16.311775 89.42204 0 1 1,-0.73632 20.388404,16.311775 89.42204 0 1 1.04102,-0.64649 20.388404,16.311775 89.42204 0 1 1.07617,-0.55078 20.388404,16.311775 89.42204 0 1 1.10547,-0.45313 20.388404,16.311775 89.42204 0 1 1.1289,-0.35351 20.388404,16.311775 89.42204 0 1 1.14454,-0.25195 20.388404,16.311775 89.42204 0 1 1.1582,-0.14844 20.388404,16.311775 89.42204 0 1 1.16406,-0.0449 z"
       transform="scale(0.26458333)" />
    <path
       style="display:inline;opacity:1;fill:#ffffff;fill-opacity:1;stroke:#ffffff;stroke-width:0.264583px;stroke-linecap:butt;stroke-linejoin:miter;stroke-opacity:1"
       d="m 13.869451,37.066513 4.468045,16.627425 h 3.852992 l 2.783331,-10.387531 2.781967,10.38244 h 3.770871 L 36.008558,36.962164 H 32.045372 L 29.630764,47.737386 26.835946,36.926766 H 23.205882 L 20.407831,47.482619 17.901659,36.917233 h -4.029495 z"
       id="path81256"
       inkscape:label="Letter W" />
  </g>
  <text
     xml:space="preserve"
     transform="scale(0.26458333)"
     id="text118878"
     style="font-style:normal;font-weight:normal;font-size:40px;line-height:1.25;font-family:sans-serif;white-space:pre;shape-inside:url(#rect118880);fill:#000000;fill-opacity:1;stroke:none"
     x="530.45978"
     y="0"
     inkscape:label="Text"><tspan
       x="208.87331"
       y="276.35727"
       id="tspan192458"><tspan
         style="font-weight:bold;-inkscape-font-specification:'sans-serif Bold';text-align:center;text-anchor:middle"
         id="tspan192456">Só que versão Tuga </tspan></tspan><tspan
       x="295.79332"
       y="326.35727"
       id="tspan192462"><tspan
         style="font-weight:bold;-inkscape-font-specification:'sans-serif Bold';text-align:center;text-anchor:middle"
         id="tspan192460">melhorada</tspan></tspan></text>
</svg>
