<?xml version="1.0" encoding="UTF-8" standalone="no"?>
<!-- Created with Inkscape (http://www.inkscape.org/) -->

<svg
   width="211.01601mm"
   height="33.081001mm"
   viewBox="0 0 211.01601 33.081002"
   version="1.1"
   id="svg35"
   inkscape:version="1.1.2 (0a00cf5339, 2022-02-04)"
   sodipodi:docname="tutorialImage1.svg"
   inkscape:export-filename="/home/darguima/Desktop/Wordle-WinForms/readme/tutorialImage1.png"
   inkscape:export-xdpi="60.185005"
   inkscape:export-ydpi="60.185005"
   xmlns:inkscape="http://www.inkscape.org/namespaces/inkscape"
   xmlns:sodipodi="http://sodipodi.sourceforge.net/DTD/sodipodi-0.dtd"
   xmlns="http://www.w3.org/2000/svg"
   xmlns:svg="http://www.w3.org/2000/svg">
  <sodipodi:namedview
     id="namedview37"
     pagecolor="#505050"
     bordercolor="#ffffff"
     borderopacity="1"
     inkscape:pageshadow="0"
     inkscape:pageopacity="0"
     inkscape:pagecheckerboard="1"
     inkscape:document-units="mm"
     showgrid="false"
     height="33.081mm"
     inkscape:zoom="1.0330822"
     inkscape:cx="262.32181"
     inkscape:cy="81.310082"
     inkscape:window-width="1920"
     inkscape:window-height="1014"
     inkscape:window-x="0"
     inkscape:window-y="36"
     inkscape:window-maximized="1"
     inkscape:current-layer="g28"
     width="300mm" />
  <defs
     id="defs32" />
  <g
     id="g3066"
     inkscape:label="Borders"
     transform="translate(-13.328917,-13.488184)"
     inkscape:export-filename="/home/darguima/Desktop/Wordle-WinForms/readme/tutorialImage2.png"
     inkscape:export-xdpi="60.184971"
     inkscape:export-ydpi="60.184971">
    <rect
       style="fill:#ffffff;fill-opacity:1;stroke:#878a8c;stroke-width:1;stroke-miterlimit:4;stroke-dasharray:none;stroke-opacity:1"
       id="rect590-3-6-7-5-3"
       width="32.08128"
       height="32.081284"
       x="191.76378"
       y="13.98819"
       inkscape:label="Border E" />
    <rect
       style="fill:#ffffff;fill-opacity:1;stroke:#878a8c;stroke-width:1;stroke-miterlimit:4;stroke-dasharray:none;stroke-opacity:1"
       id="rect590-3-6-7-5"
       width="32.08128"
       height="32.081284"
       x="156.17685"
       y="13.98819"
       inkscape:label="Border L" />
    <rect
       style="fill:#ffffff;fill-opacity:1;stroke:#878a8c;stroke-width:1;stroke-miterlimit:4;stroke-dasharray:none;stroke-opacity:1"
       id="rect590-3-6-7"
       width="32.08128"
       height="32.081284"
       x="120.58991"
       y="13.98819"
       inkscape:label="Border D" />
    <rect
       style="fill:#ffffff;fill-opacity:1;stroke:#878a8c;stroke-width:1;stroke-miterlimit:4;stroke-dasharray:none;stroke-opacity:1"
       id="rect590-3-6"
       width="32.08128"
       height="32.081284"
       x="85.002983"
       y="13.98819"
       inkscape:label="Border R" />
    <rect
       style="fill:#ffffff;fill-opacity:1;stroke:#878a8c;stroke-width:1;stroke-miterlimit:4;stroke-dasharray:none;stroke-opacity:1"
       id="rect590-3"
       width="32.08128"
       height="32.081284"
       x="49.416046"
       y="13.98819"
       inkscape:label="Border O" />
    <rect
       style="fill:#ffffff;fill-opacity:1;stroke:#878a8c;stroke-width:1;stroke-miterlimit:4;stroke-dasharray:none;stroke-opacity:1"
       id="rect590"
       width="32.08128"
       height="32.081284"
       x="13.828917"
       y="13.988184"
       inkscape:label="Border W" />
  </g>
  <g
     id="g28"
     inkscape:label="Squares"
     style="display:inline"
     transform="matrix(1.1124045,0,0,1.1124045,-11.331337,-33.994546)">
    <rect
       style="fill:#878a8c;fill-opacity:1;stroke-width:0.264583"
       id="Square_E"
       width="28.839582"
       height="28.839582"
       x="170.591"
       y="31.009001"
       inkscape:label="Square E"
       inkscape:export-filename="/home/darguima/Desktop/Wordle-WinForms/readme/tutorialImage2.png"
       inkscape:export-xdpi="60.184971"
       inkscape:export-ydpi="60.184971" />
    <rect
       style="fill:#ffffff;fill-opacity:1;stroke-width:0.264583"
       id="rect1973-3-6-7-5"
       width="28.839582"
       height="28.839582"
       x="138.60001"
       y="31.009001"
       inkscape:label="Square L"
       inkscape:export-filename="/home/darguima/Desktop/Wordle-WinForms/readme/tutorialImage2.png"
       inkscape:export-xdpi="60.184971"
       inkscape:export-ydpi="60.184971" />
    <rect
       style="fill:#ffffff;fill-opacity:1;stroke-width:0.264583"
       id="rect1973-3-6-7"
       width="28.839582"
       height="28.839582"
       x="106.609"
       y="31.009001"
       inkscape:label="Square D"
       inkscape:export-filename="/home/darguima/Desktop/Wordle-WinForms/readme/tutorialImage2.png"
       inkscape:export-xdpi="60.184971"
       inkscape:export-ydpi="60.184971" />
    <rect
       style="fill:#ffffff;fill-opacity:1;stroke-width:0.264583"
       id="Square_R"
       width="28.839582"
       height="28.839582"
       x="74.617996"
       y="31.009001"
       inkscape:label="Square R"
       inkscape:export-filename="/home/darguima/Desktop/Wordle-WinForms/readme/tutorialImage2.png"
       inkscape:export-xdpi="60.184971"
       inkscape:export-ydpi="60.184971" />
    <rect
       style="fill:#ffffff;fill-opacity:1;stroke-width:0.264583"
       id="rect1973-3"
       width="28.839582"
       height="28.839582"
       x="42.626999"
       y="31.009001"
       inkscape:label="Square O"
       inkscape:export-filename="/home/darguima/Desktop/Wordle-WinForms/readme/tutorialImage2.png"
       inkscape:export-xdpi="60.184971"
       inkscape:export-ydpi="60.184971" />
    <rect
       style="fill:#ffffff;fill-opacity:1;stroke-width:0.264583"
       id="rect1973"
       width="28.839582"
       height="28.839582"
       x="10.635822"
       y="31.008995"
       inkscape:label="Square W"
       inkscape:export-filename="/home/darguima/Desktop/Wordle-WinForms/readme/tutorialImage2.png"
       inkscape:export-xdpi="60.184971"
       inkscape:export-ydpi="60.184971" />
  </g>
  <g
     id="g27"
     inkscape:label="Letters"
     style="display:inline"
     transform="matrix(1.1124045,0,0,1.1124045,1.9975796,-20.506362)"
     inkscape:groupmode="layer">
    <path
       style="opacity:1;fill:#ffffff;stroke-width:0.0330729"
       d="m 167.07807,33.172217 v -8.218619 l 0.2067,-0.0011 c 0.20777,-0.0011 11.83963,-5.29e-4 12.07162,5.29e-4 l 0.12402,5.3e-4 v 1.500682 1.500685 l -0.10335,0.02066 c -0.0568,0.01138 -2.03626,0.02066 -4.3987,0.02066 h -4.29535 v 1.835546 1.835547 h 4.01598 4.01598 l 0.022,0.176255 c 0.0121,0.09694 0.0169,0.670481 0.0107,1.274532 -0.01,0.931725 -0.0189,1.103027 -0.061,1.129618 -0.0305,0.01929 -1.58568,0.03153 -4.04316,0.03185 l -3.99355,5.29e-4 v 2.083594 2.083591 h 4.48138 4.48138 v 1.471744 1.471745 h -6.26732 -6.26732 z"
       id="path177"
       inkscape:label="Letter E"
       inkscape:export-filename="/home/darguima/Desktop/Wordle-WinForms/readme/tutorialImage2.png"
       inkscape:export-xdpi="60.184971"
       inkscape:export-ydpi="60.184971" />
    <path
       style="display:inline;fill:#000000;stroke-width:0.0467722"
       d="m 135.63088,33.178797 v -8.156535 l 1.04068,-0.03192 c 0.57237,-0.01757 1.35639,-0.02516 1.74226,-0.01691 l 0.70158,0.01503 0.0119,6.700112 0.0118,6.700115 h 4.04563 4.04564 v 1.473322 1.473324 h -5.79975 -5.79975 z"
       id="path208"
       inkscape:label="Letter L"
       inkscape:export-filename="/home/darguima/Desktop/Wordle-WinForms/readme/tutorialImage2.png"
       inkscape:export-xdpi="60.184971"
       inkscape:export-ydpi="60.184971" />
    <path
       id="path368"
       style="display:inline;opacity:1;fill:#000000;stroke-width:0.0330729"
       d="m 108.23126,24.966541 c -0.75087,0.0011 -1.76394,0.0041 -3.14348,0.0078 l -3.11712,0.0083 v 8.21862 8.218103 l 2.91868,0.0088 c 1.60528,0.0048 3.62562,0.01199 4.48965,0.01603 1.44854,0.0068 1.59366,0.0021 1.86087,-0.05685 0.89203,-0.197242 1.85674,-0.672484 2.63705,-1.299663 1.20516,-0.96866 2.07544,-2.392693 2.53007,-4.139282 0.51227,-1.967984 0.54224,-4.186433 0.0785,-5.822899 -0.24171,-0.853096 -0.66317,-1.702165 -1.18184,-2.38125 -0.22674,-0.296879 -0.77805,-0.853898 -1.09606,-1.107427 -0.94912,-0.756682 -2.12413,-1.291526 -3.47265,-1.580264 -0.35731,-0.07651 -0.25111,-0.09274 -2.50372,-0.08992 z m -2.42828,3.24218 3.08302,0.03927 c 0,0 0.0163,0.0016 0.0465,0.0052 0.0151,0.0019 0.0339,0.0041 0.0558,0.0072 0.0219,0.0031 0.0468,0.0067 0.0749,0.01138 0.0282,0.0047 0.0596,0.01058 0.0935,0.01707 0.0339,0.0065 0.0704,0.01371 0.10955,0.02223 0.0392,0.0085 0.0807,0.01812 0.12454,0.02894 0.0439,0.01082 0.0899,0.02281 0.13798,0.03617 0.0481,0.01339 0.0986,0.02827 0.15038,0.04444 0.0518,0.01617 0.10522,0.034 0.16019,0.05323 0.0275,0.0096 0.0555,0.01955 0.0837,0.02997 0.0282,0.01043 0.0564,0.0213 0.0853,0.03256 0.0288,0.01127 0.0579,0.02299 0.0873,0.03514 0.0294,0.01214 0.059,0.02468 0.0889,0.03772 0.0299,0.01304 0.0601,0.02633 0.0904,0.04031 0.0303,0.01397 0.0607,0.02846 0.0915,0.04341 0.0307,0.01495 0.062,0.03056 0.093,0.04651 0.031,0.01595 0.0622,0.03211 0.0935,0.04909 0.0313,0.01699 0.0626,0.03467 0.0941,0.05271 0.0315,0.01805 0.063,0.03668 0.0946,0.05581 0.0316,0.01913 0.0629,0.03866 0.0946,0.05891 0.0316,0.02027 0.0635,0.04112 0.0951,0.06253 0.0316,0.0214 0.0635,0.04354 0.0951,0.06614 0.0316,0.0226 0.0631,0.04594 0.0946,0.06976 0.0314,0.02381 0.0628,0.04831 0.0941,0.07338 0.0312,0.02508 0.062,0.05065 0.093,0.077 0.031,0.02635 0.0619,0.05347 0.0925,0.08113 0.0306,0.02766 0.0612,0.05574 0.0915,0.08475 0.0302,0.02901 0.0601,0.0585 0.0899,0.08888 0.0298,0.03038 0.0591,0.06175 0.0884,0.09353 0.0293,0.03179 0.0587,0.06444 0.0873,0.09767 0.0287,0.03323 0.0567,0.06711 0.0848,0.101803 0.028,0.0347 0.0559,0.06974 0.0832,0.105937 0.0273,0.0362 0.0541,0.07337 0.0806,0.111104 0.0265,0.03773 0.0529,0.07646 0.0786,0.115755 0.0257,0.0393 0.0507,0.079 0.0754,0.11989 0.0248,0.04089 0.0491,0.08254 0.0729,0.125056 0.0238,0.04252 0.0475,0.08605 0.0703,0.130225 0.0228,0.04417 0.045,0.08901 0.0667,0.134877 0.0217,0.04586 0.0425,0.09297 0.0631,0.14056 0.0205,0.04758 0.0407,0.09587 0.0599,0.145211 0.0193,0.04934 0.0378,0.09977 0.0558,0.150894 0.018,0.05112 0.035,0.103127 0.0517,0.156062 0.0166,0.05294 0.0329,0.106447 0.0481,0.161232 0.0152,0.05478 0.0297,0.11077 0.0434,0.167431 0.0137,0.05666 0.0266,0.11403 0.0388,0.172598 0.0122,0.05857 0.0236,0.11829 0.0341,0.1788 0.0106,0.06051 0.0201,0.122002 0.0289,0.184486 0.009,0.06248 0.0172,0.125683 0.0243,0.19017 0.007,0.06449 0.0133,0.130365 0.0186,0.196887 0.005,0.06652 0.009,0.133985 0.0129,0.20257 0.003,0.06859 0.006,0.138089 0.008,0.208775 0.002,0.07068 0.002,0.14216 0.002,0.214974 -5.3e-4,0.07281 -0.002,0.146716 -0.005,0.221691 -0.003,0.07497 -0.006,0.149016 -0.0103,0.221692 -0.004,0.07268 -0.009,0.144042 -0.0145,0.214458 -0.006,0.07041 -0.012,0.140065 -0.0191,0.208254 -0.007,0.06819 -0.0152,0.135025 -0.0238,0.201022 -0.009,0.066 -0.018,0.130977 -0.0279,0.194821 -0.01,0.06384 -0.0203,0.126375 -0.0315,0.188103 -0.0113,0.06172 -0.0232,0.122774 -0.0357,0.182417 -0.0125,0.05964 -0.0255,0.118104 -0.0393,0.175699 -0.0137,0.05759 -0.028,0.114432 -0.0429,0.170016 -0.0149,0.05558 -0.0305,0.109691 -0.0465,0.163298 -0.016,0.05361 -0.0325,0.10646 -0.0496,0.158128 -0.0171,0.05167 -0.0346,0.102166 -0.0527,0.151929 -0.0181,0.04976 -0.0367,0.09887 -0.0558,0.146762 -0.0191,0.04789 -0.0389,0.09501 -0.0589,0.141076 -0.02,0.04606 -0.0402,0.09113 -0.061,0.135392 -0.0208,0.04427 -0.0419,0.08772 -0.0636,0.130226 -0.0216,0.0425 -0.0438,0.08376 -0.0661,0.124539 -0.0224,0.04078 -0.0451,0.0808 -0.0682,0.119891 -0.0231,0.03909 -0.0465,0.07729 -0.0703,0.11472 -0.0237,0.03744 -0.048,0.07426 -0.0723,0.110072 -0.0243,0.03581 -0.0485,0.07067 -0.0734,0.104902 -0.0249,0.03423 -0.0501,0.06757 -0.0755,0.100254 -0.0254,0.03269 -0.0512,0.06494 -0.077,0.09612 -0.0259,0.03118 -0.0518,0.06125 -0.078,0.09095 -0.0263,0.0297 -0.053,0.05907 -0.0796,0.08733 -0.0266,0.02826 -0.0532,0.05582 -0.0801,0.08268 -0.0269,0.02685 -0.054,0.05306 -0.0811,0.07855 -0.0271,0.02548 -0.0543,0.05026 -0.0817,0.07441 -0.0273,0.02416 -0.0547,0.04742 -0.0822,0.07028 -0.0274,0.02286 -0.0546,0.04506 -0.0822,0.06666 -0.0275,0.02159 -0.0551,0.04267 -0.0827,0.06304 -0.0276,0.02037 -0.0551,0.04024 -0.0827,0.05943 -0.0276,0.01918 -0.0552,0.03778 -0.0827,0.05581 -0.0275,0.01805 -0.0548,0.03528 -0.0822,0.05219 -0.0274,0.01691 -0.055,0.03326 -0.0822,0.04909 -0.0272,0.01582 -0.0541,0.03121 -0.0811,0.04599 -0.027,0.01479 -0.0539,0.02912 -0.0806,0.04289 -0.0267,0.01378 -0.0532,0.02699 -0.0796,0.03979 -0.0264,0.01281 -0.0525,0.02535 -0.0785,0.03721 -0.026,0.01185 -0.0519,0.02315 -0.0775,0.03411 -0.0256,0.01095 -0.0514,0.02143 -0.0765,0.03152 -0.0251,0.01008 -0.0498,0.01968 -0.0744,0.02894 -0.0246,0.0093 -0.0489,0.01789 -0.0729,0.02635 -0.024,0.0085 -0.0479,0.01659 -0.0713,0.02429 -0.0468,0.0154 -0.092,0.02928 -0.13591,0.04186 -0.0439,0.01257 -0.0864,0.02408 -0.12713,0.03411 -0.0407,0.01003 -0.0797,0.01857 -0.11679,0.02635 -0.037,0.0078 -0.0719,0.01487 -0.1049,0.02066 -0.033,0.0058 -0.064,0.01034 -0.0925,0.01447 -0.0285,0.0041 -0.0549,0.0076 -0.0786,0.01035 -0.0236,0.0027 -0.0447,0.0051 -0.063,0.0067 -0.0183,0.0016 -0.0339,0.0028 -0.0465,0.0036 -0.0253,0.0016 -0.0388,0.0016 -0.0388,0.0016 l -3.44165,-0.02791 z"
       inkscape:label="Letter D"
       inkscape:export-filename="/home/darguima/Desktop/Wordle-WinForms/readme/tutorialImage2.png"
       inkscape:export-xdpi="60.184971"
       inkscape:export-ydpi="60.184971" />
    <path
       id="path166968"
       style="fill:#000000;fill-opacity:1;stroke:none;stroke-width:0.0467722"
       d="m 70.290419,24.918482 v 8.231539 l -5.29e-4,8.232055 h 1.800923 1.800924 v -3.08715 -3.086632 h 2.364197 c 2.089558,0 2.381763,0.0088 2.514058,0.07596 0.793832,0.402957 1.366694,1.583012 1.621089,3.338295 0.104018,0.717714 0.188354,1.757228 0.188618,2.326992 l 5.3e-4,0.386022 h 1.815909 1.816426 l -0.01447,-0.245981 c -0.180007,-3.086558 -0.613799,-5.0713 -1.370457,-6.269384 -0.22619,-0.358142 -0.67885,-0.795798 -0.908989,-0.879014 -0.137925,-0.04988 -0.160198,-0.079 -0.160198,-0.211358 0,-0.137988 0.03158,-0.174188 0.311092,-0.355017 0.171069,-0.110676 0.470945,-0.358969 0.66611,-0.551905 1.055092,-1.043038 1.379812,-2.17773 1.14205,-3.991486 -0.24275,-1.851792 -1.120809,-3.145697 -2.48357,-3.659727 -0.681577,-0.257091 -0.597503,-0.253214 -6.056479,-0.253214 z m 7.624858,3.060279 c 0.01601,-2.65e-4 0.03992,-9.5e-5 0.06976,5.29e-4 0.01492,2.65e-4 0.03111,7.94e-4 0.04909,0.0016 0.01799,7.93e-4 0.03763,0.0016 0.05839,0.0031 0.02077,0.0013 0.04286,0.003 0.06615,0.0052 0.02328,0.0021 0.04785,0.0046 0.07338,0.0078 0.02553,0.0031 0.05206,0.0072 0.07958,0.01138 0.02751,0.0042 0.05604,0.009 0.08526,0.01447 0.02923,0.0054 0.05925,0.01122 0.08992,0.0181 0.03066,0.0069 0.0617,0.01482 0.09353,0.02326 0.01593,0.0042 0.0319,0.0083 0.04806,0.01291 0.01617,0.0046 0.03272,0.0094 0.04909,0.01447 0.01638,0.0051 0.03255,0.01048 0.04909,0.01603 0.01654,0.0055 0.03344,0.01156 0.05013,0.01757 0.01669,0.006 0.03333,0.01209 0.05012,0.0186 0.0168,0.0065 0.03378,0.01312 0.05064,0.02016 0.01688,0.007 0.03373,0.01466 0.05064,0.02222 0.01691,0.0076 0.03373,0.01513 0.05064,0.02326 0.01691,0.0081 0.03376,0.01662 0.05064,0.02532 0.01688,0.0087 0.03381,0.01757 0.05064,0.02687 0.01683,0.0093 0.03339,0.01902 0.05012,0.02894 0.01672,0.0099 0.03352,0.01995 0.05013,0.03049 0.01662,0.01053 0.03316,0.02135 0.04961,0.03255 0.01646,0.01119 0.03285,0.02275 0.04909,0.03462 0.01625,0.01188 0.03256,0.02413 0.04857,0.03669 0.01603,0.01257 0.03179,0.02548 0.04754,0.03876 0.01577,0.01328 0.03157,0.02681 0.04703,0.04082 0.01545,0.014 0.03034,0.02865 0.04548,0.04341 0.01513,0.01476 0.03019,0.02994 0.04496,0.04547 0.01476,0.01553 0.02956,0.03122 0.04393,0.04754 0.01437,0.01632 0.02844,0.03299 0.04237,0.05013 0.01394,0.01714 0.02787,0.03474 0.04134,0.05271 0.01347,0.01796 0.0263,0.03648 0.03927,0.0553 0.01297,0.01881 0.0258,0.03819 0.03824,0.05788 0.01244,0.01969 0.02482,0.03989 0.03669,0.06046 0.01188,0.02058 0.02334,0.04156 0.03462,0.06305 0.01127,0.02148 0.02244,0.04322 0.03307,0.06563 0.01064,0.02241 0.0205,0.04537 0.03049,0.06873 0.01,0.02336 0.01966,0.04698 0.02894,0.07131 0.0093,0.02432 0.01834,0.0491 0.02687,0.07441 0.0085,0.02532 0.01704,0.05119 0.02479,0.07752 0.0078,0.02633 0.01474,0.05327 0.0217,0.08061 0.007,0.02735 0.01349,0.05532 0.01963,0.08372 0.0061,0.02839 0.0123,0.05736 0.01757,0.08682 0.0053,0.02946 0.01011,0.05938 0.01447,0.08992 0.0044,0.03054 0.0079,0.06137 0.01138,0.09302 0.0034,0.03165 0.0063,0.06387 0.0088,0.09664 0.0024,0.03277 0.0047,0.06634 0.0062,0.10025 0.0016,0.03392 0.0021,0.06828 0.0026,0.103355 5.3e-4,0.03507 5.3e-4,0.07071 0,0.106968 -5.29e-4,0.03626 -0.0021,0.0719 -0.0041,0.106971 -0.0019,0.03508 -0.0046,0.06944 -0.0078,0.103354 -0.0032,0.03391 -0.0069,0.06748 -0.01138,0.100251 -0.0044,0.03277 -0.0094,0.06499 -0.01498,0.09664 -0.0056,0.03164 -0.01188,0.06248 -0.0186,0.09302 -0.0067,0.03054 -0.01389,0.06047 -0.0217,0.08992 -0.0078,0.02945 -0.01646,0.05843 -0.02532,0.08682 -0.0089,0.02838 -0.01802,0.05638 -0.0279,0.08371 -0.0099,0.02734 -0.02016,0.0543 -0.03101,0.08062 -0.01085,0.0263 -0.02233,0.05221 -0.03411,0.07752 -0.01177,0.02532 -0.02402,0.0501 -0.03669,0.07441 -0.01265,0.02432 -0.02577,0.04796 -0.03927,0.07131 -0.01349,0.02336 -0.02756,0.04633 -0.04186,0.06873 -0.01429,0.02241 -0.02887,0.04415 -0.04393,0.06563 -0.01506,0.02148 -0.03022,0.04248 -0.04599,0.06304 -0.01577,0.02056 -0.03213,0.04078 -0.04858,0.06046 -0.01646,0.01968 -0.03305,0.03907 -0.05013,0.05788 -0.01706,0.01881 -0.03452,0.03682 -0.05219,0.05478 -0.01767,0.01796 -0.03552,0.03559 -0.05374,0.05271 -0.01823,0.01712 -0.03656,0.03381 -0.0553,0.05013 -0.01873,0.01632 -0.03816,0.03254 -0.05736,0.04806 -0.01921,0.01553 -0.03825,0.03021 -0.05788,0.04496 -0.01963,0.01474 -0.03942,0.02941 -0.05943,0.04341 -0.02,0.014 -0.04063,0.02756 -0.06098,0.04083 -0.02035,0.01326 -0.04084,0.02622 -0.06149,0.03876 -0.02066,0.01254 -0.0411,0.02484 -0.06201,0.03669 -0.0209,0.01185 -0.04191,0.02344 -0.06305,0.03462 -0.02114,0.01119 -0.04277,0.02204 -0.06408,0.03256 -0.0213,0.01053 -0.04263,0.02058 -0.06408,0.03049 -0.02146,0.0099 -0.04254,0.01966 -0.06408,0.02894 -0.02154,0.0093 -0.04352,0.01818 -0.06511,0.02687 -0.02159,0.0087 -0.04299,0.0167 -0.0646,0.02479 -0.02159,0.0081 -0.04302,0.01622 -0.0646,0.02376 -0.02156,0.0075 -0.04309,0.01469 -0.06459,0.0217 -0.02151,0.007 -0.04321,0.01365 -0.06459,0.02016 -0.02138,0.0065 -0.04285,0.01262 -0.06408,0.0186 -0.02122,0.006 -0.04202,0.01206 -0.06305,0.01757 -0.02103,0.0055 -0.04225,0.01095 -0.06305,0.01601 -0.0208,0.0051 -0.0415,0.0098 -0.06201,0.01447 -0.0205,0.0046 -0.04079,0.0087 -0.06098,0.01291 -0.04038,0.0084 -0.08001,0.0159 -0.118856,0.02273 -0.03884,0.0068 -0.07671,0.01318 -0.113689,0.0186 -0.03697,0.0054 -0.07323,0.01029 -0.108002,0.01447 -0.03478,0.0042 -0.06801,0.0078 -0.100254,0.01085 -0.03224,0.0031 -0.06313,0.0056 -0.0925,0.0078 -0.02937,0.0021 -0.05754,0.0038 -0.08371,0.0052 -0.02617,0.0013 -0.05074,0.0024 -0.07338,0.0031 -0.02265,7.93e-4 -0.04323,0.0013 -0.06201,0.0016 -0.03756,5.29e-4 -0.06723,2.65e-4 -0.08733,0 -0.02011,-2.65e-4 -0.03049,-5.29e-4 -0.03049,-5.29e-4 l -3.236497,-0.07286 -0.0894,-4.291213 3.967199,-0.03307 c 0,0 0.0083,-7.94e-4 0.02429,-0.0011 z"
       inkscape:label="Letter R"
       inkscape:export-filename="/home/darguima/Desktop/Wordle-WinForms/readme/tutorialImage2.png"
       inkscape:export-xdpi="60.184971"
       inkscape:export-ydpi="60.184971" />
    <path
       id="path165722"
       style="display:inline;opacity:1;fill:#000000;fill-opacity:1;stroke:#000000;stroke-width:0.241218"
       inkscape:label="Letter O"
       d="m 44.742107,24.403785 a 8.8046596,8.3618103 87.478899 0 0 -8.362796,8.763807 8.8046596,8.3618103 87.478899 0 0 8.362796,8.843904 8.8046596,8.3618103 87.478899 0 0 8.362799,-8.763807 8.8046596,8.3618103 87.478899 0 0 -8.362799,-8.843904 z m 0.077,3.498495 a 5.3944318,4.3158237 89.42204 0 1 0.307991,0.0155 5.3944318,4.3158237 89.42204 0 1 0.306443,0.04289 5.3944318,4.3158237 89.42204 0 1 0.302824,0.06976 5.3944318,4.3158237 89.42204 0 1 0.298688,0.09715 5.3944318,4.3158237 89.42204 0 1 0.292489,0.122989 5.3944318,4.3158237 89.42204 0 1 0.28422,0.149346 5.3944318,4.3158237 89.42204 0 1 0.275953,0.173633 5.3944318,4.3158237 89.42204 0 1 0.264583,0.197919 5.3944318,4.3158237 89.42204 0 1 0.253214,0.221176 5.3944318,4.3158237 89.42204 0 1 0.239779,0.242879 5.3944318,4.3158237 89.42204 0 1 0.225827,0.263549 5.3944318,4.3158237 89.42204 0 1 0.209807,0.283186 5.3944318,4.3158237 89.42204 0 1 0.193267,0.301276 5.3944318,4.3158237 89.42204 0 1 0.175702,0.317294 5.3944318,4.3158237 89.42204 0 1 0.157096,0.331761 5.3944318,4.3158237 89.42204 0 1 0.137975,0.345199 5.3944318,4.3158237 89.42204 0 1 0.117822,0.356568 5.3944318,4.3158237 89.42204 0 1 0.09715,0.365869 5.3944318,4.3158237 89.42204 0 1 0.07648,0.373621 5.3944318,4.3158237 89.42204 0 1 0.05478,0.379304 5.3944318,4.3158237 89.42204 0 1 0.03307,0.382923 5.3944318,4.3158237 89.42204 0 1 0.01085,0.384987 5.3944318,4.3158237 89.42204 0 1 -0.0016,0.132292 5.3944318,4.3158237 89.42204 0 1 -0.0036,0.132292 5.3944318,4.3158237 89.42204 0 1 -0.0067,0.131775 5.3944318,4.3158237 89.42204 0 1 -0.0088,0.131776 5.3944318,4.3158237 89.42204 0 1 -0.01188,0.131776 5.3944318,4.3158237 89.42204 0 1 -0.01447,0.131257 5.3944318,4.3158237 89.42204 0 1 -0.01654,0.130225 5.3944318,4.3158237 89.42204 0 1 -0.01963,0.130223 5.3944318,4.3158237 89.42204 0 1 -0.0217,0.129709 5.3944318,4.3158237 89.42204 0 1 -0.02479,0.128156 5.3944318,4.3158237 89.42204 0 1 -0.02687,0.128159 5.3944318,4.3158237 89.42204 0 1 -0.02945,0.127125 5.3944318,4.3158237 89.42204 0 1 -0.03204,0.12609 5.3944318,4.3158237 89.42204 0 1 -0.03411,0.124539 5.3944318,4.3158237 89.42204 0 1 -0.03721,0.124023 5.3944318,4.3158237 89.42204 0 1 -0.03927,0.122992 5.3944318,4.3158237 89.42204 0 1 -0.04186,0.121438 5.3944318,4.3158237 89.42204 0 1 -0.04393,0.119891 5.3944318,4.3158237 89.42204 0 1 -0.04651,0.118856 5.3944318,4.3158237 89.42204 0 1 -0.04857,0.117303 5.3944318,4.3158237 89.42204 0 1 -0.05116,0.115755 5.3944318,4.3158237 89.42204 0 1 -0.05323,0.113689 5.3944318,4.3158237 89.42204 0 1 -0.05581,0.112654 5.3944318,4.3158237 89.42204 0 1 -0.05788,0.110588 5.3944318,4.3158237 89.42204 0 1 -0.05994,0.109038 5.3944318,4.3158237 89.42204 0 1 -0.06201,0.106452 5.3944318,4.3158237 89.42204 0 1 -0.06408,0.105421 5.3944318,4.3158237 89.42204 0 1 -0.06615,0.102835 5.3944318,4.3158237 89.42204 0 1 -0.06821,0.10077 5.3944318,4.3158237 89.42204 0 1 -0.07028,0.0987 5.3944318,4.3158237 89.42204 0 1 -0.07183,0.09664 5.3944318,4.3158237 89.42204 0 1 -0.0739,0.09457 5.3944318,4.3158237 89.42204 0 1 -0.07596,0.09198 5.3944318,4.3158237 89.42204 0 1 -0.07752,0.0894 5.3944318,4.3158237 89.42204 0 1 -0.07958,0.08733 5.3944318,4.3158237 89.42204 0 1 -0.08113,0.08475 5.3944318,4.3158237 89.42204 0 1 -0.08268,0.08268 5.3944318,4.3158237 89.42204 0 1 -0.08423,0.07958 5.3944318,4.3158237 89.42204 0 1 -0.08578,0.077 5.3944318,4.3158237 89.42204 0 1 -0.08733,0.07441 5.3944318,4.3158237 89.42204 0 1 -0.08888,0.07183 5.3944318,4.3158237 89.42204 0 1 -0.08992,0.06873 5.3944318,4.3158237 89.42204 0 1 -0.09147,0.06615 5.3944318,4.3158237 89.42204 0 1 -0.09302,0.06356 5.3944318,4.3158237 89.42204 0 1 -0.09405,0.05994 5.3944318,4.3158237 89.42204 0 1 -0.09508,0.05788 5.3944318,4.3158237 89.42204 0 1 -0.09663,0.05426 5.3944318,4.3158237 89.42204 0 1 -0.09715,0.05168 5.3944318,4.3158237 89.42204 0 1 -0.09819,0.04857 5.3944318,4.3158237 89.42204 0 1 -0.09922,0.04599 5.3944318,4.3158237 89.42204 0 1 -0.100251,0.04237 5.3944318,4.3158237 89.42204 0 1 -0.101285,0.03927 5.3944318,4.3158237 89.42204 0 1 -0.101803,0.03617 5.3944318,4.3158237 89.42204 0 1 -0.10232,0.03307 5.3944318,4.3158237 89.42204 0 1 -0.102836,0.02997 5.3944318,4.3158237 89.42204 0 1 -0.10387,0.02687 5.3944318,4.3158237 89.42204 0 1 -0.10387,0.02376 5.3944318,4.3158237 89.42204 0 1 -0.104902,0.02066 5.3944318,4.3158237 89.42204 0 1 -0.104905,0.01704 5.3944318,4.3158237 89.42204 0 1 -0.104902,0.01394 5.3944318,4.3158237 89.42204 0 1 -0.105936,0.01085 5.3944318,4.3158237 89.42204 0 1 -0.105421,0.0072 5.3944318,4.3158237 89.42204 0 1 -0.105936,0.0047 5.3944318,4.3158237 89.42204 0 1 -0.105937,0.0011 5.3944318,4.3158237 89.42204 0 1 -0.307991,-0.0155 5.3944318,4.3158237 89.42204 0 1 -0.30644,-0.04289 5.3944318,4.3158237 89.42204 0 1 -0.302826,-0.07028 5.3944318,4.3158237 89.42204 0 1 -0.298688,-0.09664 5.3944318,4.3158237 89.42204 0 1 -0.292489,-0.123505 5.3944318,4.3158237 89.42204 0 1 -0.284737,-0.148828 5.3944318,4.3158237 89.42204 0 1 -0.275436,-0.174152 5.3944318,4.3158237 89.42204 0 1 -0.264584,-0.197918 5.3944318,4.3158237 89.42204 0 1 -0.253214,-0.221176 5.3944318,4.3158237 89.42204 0 1 -0.239779,-0.24288 5.3944318,4.3158237 89.42204 0 1 -0.225827,-0.263549 5.3944318,4.3158237 89.42204 0 1 -0.209804,-0.283188 5.3944318,4.3158237 89.42204 0 1 -0.19327,-0.300755 5.3944318,4.3158237 89.42204 0 1 -0.175702,-0.317294 5.3944318,4.3158237 89.42204 0 1 -0.157096,-0.332279 5.3944318,4.3158237 89.42204 0 1 -0.137975,-0.345199 5.3944318,4.3158237 89.42204 0 1 -0.117822,-0.35605 5.3944318,4.3158237 89.42204 0 1 -0.09767,-0.365871 5.3944318,4.3158237 89.42204 0 1 -0.07597,-0.373618 5.3944318,4.3158237 89.42204 0 1 -0.05478,-0.379307 5.3944318,4.3158237 89.42204 0 1 -0.03307,-0.382921 5.3944318,4.3158237 89.42204 0 1 -0.01085,-0.38499 5.3944318,4.3158237 89.42204 0 1 0.01085,-0.38499 5.3944318,4.3158237 89.42204 0 1 0.03307,-0.382405 5.3944318,4.3158237 89.42204 0 1 0.05478,-0.378788 5.3944318,4.3158237 89.42204 0 1 0.07597,-0.372589 5.3944318,4.3158237 89.42204 0 1 0.09767,-0.364834 5.3944318,4.3158237 89.42204 0 1 0.117822,-0.355018 5.3944318,4.3158237 89.42204 0 1 0.137975,-0.343648 5.3944318,4.3158237 89.42204 0 1 0.157096,-0.330211 5.3944318,4.3158237 89.42204 0 1 0.175702,-0.315227 5.3944318,4.3158237 89.42204 0 1 0.19327,-0.298691 5.3944318,4.3158237 89.42204 0 1 0.209804,-0.280601 5.3944318,4.3158237 89.42204 0 1 0.225827,-0.261485 5.3944318,4.3158237 89.42204 0 1 0.239779,-0.240295 5.3944318,4.3158237 89.42204 0 1 0.253214,-0.218075 5.3944318,4.3158237 89.42204 0 1 0.264584,-0.194818 5.3944318,4.3158237 89.42204 0 1 0.275436,-0.17105 5.3944318,4.3158237 89.42204 0 1 0.284737,-0.145727 5.3944318,4.3158237 89.42204 0 1 0.292489,-0.119891 5.3944318,4.3158237 89.42204 0 1 0.298688,-0.09353 5.3944318,4.3158237 89.42204 0 1 0.302826,-0.06666 5.3944318,4.3158237 89.42204 0 1 0.30644,-0.03927 5.3944318,4.3158237 89.42204 0 1 0.307991,-0.01188 z"
       inkscape:export-filename="/home/darguima/Desktop/Wordle-WinForms/readme/tutorialImage2.png"
       inkscape:export-xdpi="60.184971"
       inkscape:export-ydpi="60.184971" />
    <path
       style="display:inline;opacity:1;fill:#000000;fill-opacity:1;stroke:#ffffff;stroke-width:0.264583px;stroke-linecap:butt;stroke-linejoin:miter;stroke-opacity:1"
       d="m 1.8873738,24.941262 4.468045,16.627425 h 3.8529922 l 2.783331,-10.387531 2.781967,10.38244 H 19.54458 L 24.026481,24.836913 H 20.063295 L 17.648687,35.612135 14.853869,24.801515 H 11.223805 L 8.4257538,35.357368 5.9195818,24.791982 h -4.029495 z"
       id="path81256"
       inkscape:label="Letter W"
       inkscape:export-filename="/home/darguima/Desktop/Wordle-WinForms/readme/tutorialImage2.png"
       inkscape:export-xdpi="60.184971"
       inkscape:export-ydpi="60.184971" />
  </g>
</svg>
